<svg version="1.1" id="Layer_1" xmlns="http://www.w3.org/2000/svg" xmlns:xlink="http://www.w3.org/1999/xlink" x="0px" y="0px"
	 viewBox="0 0 511.999 511.999" style="enable-background:new 0 0 511.999 511.999;" xml:space="preserve">
<path style="fill:#A86B38;" d="M179.555,129.719c13.013,23.53,75.013-32.72,58.233-48.242
	c-24.307-16.002-71.248-70.801-79.913-81.026c-0.632-0.746-1.827-0.532-2.161,0.387c-3.105,8.562-14.225,42.617-7.096,73.569
	C152.313,90.449,168.379,94.044,179.555,129.719z"/>
<path style="fill:#BF7F4F;" d="M189.696,116.35c3.196-3.328,4.643-6.365,5.596-9.297c3.903-12.004,1.756-25.076-5.014-35.729
	c-10.393-16.355-17.307-35.47-29.771-49.5c-2.648,14.83-3.967,32.838-0.116,49.561c0.871,3.784,3.331,6.898,8.368,13.028
	C174.922,91.915,182.551,101.199,189.696,116.35z"/>
<path style="fill:#A86B38;" d="M347.453,129.719c-13.014,23.53-75.014-32.72-58.233-48.242
	c24.307-16.002,71.248-70.801,79.913-81.026c0.632-0.746,1.827-0.532,2.161,0.387c3.105,8.562,14.225,42.617,7.096,73.569
	C374.694,90.449,358.629,94.044,347.453,129.719z"/>
<path style="fill:#BF7F4F;" d="M337.312,116.35c-3.196-3.328-4.643-6.365-5.596-9.297c-3.903-12.004-1.756-25.076,5.014-35.729
	c10.393-16.355,17.307-35.47,29.771-49.5c2.648,14.83,3.967,32.838,0.116,49.561c-0.871,3.784-3.331,6.898-8.368,13.028
	C352.085,91.915,344.457,101.199,337.312,116.35z"/>
<path style="fill:#A86B38;" d="M349.292,141.033c0,0-53.44-66.626-85.788-66.626l0,0c-32.349,0-85.788,66.626-85.788,66.626
	c-9.844,19.893-20.73,41.689-21.304,63.876l-0.599,23.129c-1.708,65.981,16.36,131.551,42.36,192.218l16.401,38.269
	c3.286,7.668,10.826,12.64,19.169,12.64h59.523c8.343,0,15.882-4.972,19.169-12.64l16.401-38.269
	c26-60.666,44.068-126.237,42.36-192.218l-0.599-23.129C370.022,182.722,359.136,160.925,349.292,141.033z"/>
<path style="fill:#995E31;" d="M371.195,228.038l-0.599-23.129c-0.574-22.187-11.461-43.984-21.304-63.876
	c0,0-53.44-66.626-85.788-66.626l0,0c-4.739,0-9.932,1.438-15.342,3.879c31.519,14.22,70.446,62.748,70.446,62.748
	c9.844,19.893,20.73,41.689,21.304,63.877l0.599,23.129c1.708,65.981-16.36,131.551-42.36,192.218l-21.818,50.909h16.933
	c8.343,0,15.882-4.972,19.169-12.64l16.401-38.269C354.835,359.589,372.903,294.019,371.195,228.038z"/>
<g>
	<path style="fill:#BF7F4F;" d="M192.066,405.523c0.892,2.223,1.795,4.439,2.71,6.65c1.118,2.703,2.247,5.399,3.397,8.083
		l16.401,38.269c3.286,7.668,10.826,12.64,19.169,12.64h1.769c-7.39-14.992-30.972-65.25-29.38-93.04
		c1.886-32.921,18.964-91.082,7.991-126.197c-10.267-32.856-52.463-40.734-57.851-41.612l-0.421,16.278l-0.037,1.445
		c-0.053,2.062-0.088,4.123-0.103,6.184c-0.272,37.097,5.596,74.021,15.496,109.969c2.2,7.989,4.599,15.929,7.174,23.813
		c2.82,8.632,5.857,17.194,9.068,25.678C188.949,397.647,190.489,401.594,192.066,405.523z"/>
	<path style="fill:#BF7F4F;" d="M334.942,405.523c-0.892,2.223-1.795,4.439-2.71,6.65c-1.118,2.703-2.247,5.399-3.397,8.083
		l-16.401,38.269c-3.286,7.668-10.826,12.64-19.169,12.64h-1.769c7.39-14.992,30.972-65.25,29.38-93.04
		c-1.886-32.921-18.964-91.082-7.991-126.197c10.267-32.856,52.463-40.734,57.851-41.612l0.421,16.278l0.037,1.445
		c0.053,2.062,0.088,4.123,0.103,6.184c0.272,37.097-5.596,74.021-15.496,109.969c-2.2,7.989-4.599,15.929-7.174,23.813
		c-2.82,8.632-5.857,17.194-9.068,25.678C338.058,397.647,336.518,401.594,334.942,405.523z"/>
</g>
<path style="fill:#B27247;" d="M355.801,344.192c0.587-2.131,1.157-4.267,1.716-6.405c0.179-0.685,0.349-1.372,0.525-2.058
	c0.373-1.455,0.744-2.911,1.104-4.37c0.203-0.825,0.399-1.651,0.598-2.477c0.319-1.325,0.635-2.651,0.943-3.978
	c0.203-0.876,0.4-1.754,0.598-2.631c0.291-1.29,0.577-2.58,0.856-3.871c0.192-0.889,0.382-1.778,0.568-2.668
	c0.271-1.293,0.536-2.587,0.795-3.882c0.177-0.882,0.354-1.764,0.525-2.647c0.259-1.334,0.508-2.669,0.754-4.005
	c0.154-0.836,0.312-1.671,0.461-2.508c0.263-1.476,0.512-2.954,0.76-4.432c0.116-0.696,0.239-1.391,0.352-2.088
	c0.705-4.349,1.339-8.707,1.901-13.073c0.09-0.7,0.169-1.401,0.256-2.101c0.182-1.483,0.363-2.965,0.528-4.45
	c0.094-0.842,0.178-1.685,0.267-2.528c0.141-1.348,0.279-2.696,0.406-4.045c0.084-0.893,0.161-1.786,0.238-2.679
	c0.113-1.309,0.221-2.618,0.321-3.928c0.069-0.907,0.134-1.814,0.196-2.721c0.089-1.309,0.17-2.619,0.246-3.929
	c0.052-0.896,0.103-1.793,0.148-2.69c0.068-1.351,0.123-2.703,0.175-4.055c0.033-0.851,0.069-1.701,0.096-2.552
	c0.046-1.479,0.076-2.958,0.103-4.438c0.013-0.722,0.034-1.443,0.043-2.165c0.027-2.198,0.036-4.396,0.019-6.595l0,0
	c-0.015-2.061-0.049-4.123-0.103-6.184l-0.037-1.445l-0.421-16.278c-2.932,0.478-16.759,3.039-30.411,10.557l0.186,7.166
	c1.187,45.861-7.186,91.521-21.129,135.476c0.702,5.247,1.24,10.165,1.494,14.61c1.592,27.79-21.99,78.048-29.38,93.04h1.769
	c5.214,0,10.115-1.942,13.859-5.271c1.498-1.331,2.811-2.885,3.885-4.624c0.537-0.87,1.014-1.786,1.425-2.745l4.92-11.481
	l11.481-26.788c1.149-2.682,2.277-5.377,3.395-8.077c0.002-0.004,0.004-0.009,0.005-0.013c0.913-2.208,1.816-4.422,2.706-6.642
	c0.786-1.96,1.563-3.924,2.331-5.893c0.003-0.008,0.006-0.016,0.009-0.023c0.768-1.968,1.526-3.941,2.274-5.918
	c0.001-0.003,0.002-0.006,0.004-0.009c0.792-2.092,1.572-4.188,2.342-6.29c0.015-0.042,0.031-0.083,0.046-0.125
	c0.722-1.971,1.432-3.947,2.133-5.927c0.069-0.194,0.139-0.388,0.208-0.582c0.639-1.808,1.265-3.621,1.886-5.435
	c0.116-0.339,0.235-0.676,0.35-1.015c0.713-2.096,1.414-4.196,2.102-6.301c0.644-1.971,1.277-3.945,1.898-5.923
	c1.101-3.505,2.161-7.023,3.188-10.549C354.426,349.09,355.126,346.644,355.801,344.192z"/>
<path id="SVGCleanerId_0" style="fill:#FEA921;" d="M367.334,170.001C355.45,128.16,302.23,72.196,266.808,72.196l0,0
	c-29.077,0-72.171,38.502-95.46,66.485c-25.784,30.98-46.454,81.525-38.264,76.798c16.586-9.573,55.727-40.368,62.683-40.368
	c12.629,0-20.539,41.519-19.053,46.719c1.486,5.2,58.425-19.233,73.282-41.519c14.857-22.286,46.843-18.405,37.886-2.971
	c-28.189,48.574,23.029,28.972,38.629,0.743C342.111,149.854,369.296,176.908,367.334,170.001z"/>
<g>
	<path id="SVGCleanerId_0_1_" style="fill:#FEA921;" d="M367.334,170.001C355.45,128.16,302.23,72.196,266.808,72.196l0,0
		c-29.077,0-72.171,38.502-95.46,66.485c-25.784,30.98-46.454,81.525-38.264,76.798c16.586-9.573,55.727-40.368,62.683-40.368
		c12.629,0-20.539,41.519-19.053,46.719c1.486,5.2,58.425-19.233,73.282-41.519c14.857-22.286,46.843-18.405,37.886-2.971
		c-28.189,48.574,23.029,28.972,38.629,0.743C342.111,149.854,369.296,176.908,367.334,170.001z"/>
</g>
<g>
	<path style="fill:#FE9901;" d="M246.82,184.414c1.058-2.18,2.305-4.528,3.783-7.074c8.957-15.434-23.029-19.314-37.886,2.972
		c-5.056,7.583-14.985,15.415-25.943,22.243c-5.48,8.95-10.667,17.15-10.06,19.276C178.108,226.713,228.383,205.473,246.82,184.414z
		"/>
	<path style="fill:#FE9901;" d="M158.487,175.111c-2.313,0-8.194,3.414-15.612,8.312c-9.729,19.42-14.47,34.757-9.792,32.057
		c3.756-2.168,8.674-5.429,14.108-9.17C155.583,192.61,166.686,175.111,158.487,175.111z"/>
	<path style="fill:#FE9901;" d="M367.334,170.001C355.45,128.16,302.23,72.196,266.807,72.196l0,0
		c-4.963,0-10.34,1.144-15.952,3.143c28.749,8.292,56.163,32.508,65.691,66.052c1.962,6.907-11.715,8.462-27.315,36.691
		c-1.738,3.144-3.919,6.18-6.382,9.028c-15.687,35.814,29.227,17.089,43.661-9.028C342.111,149.854,369.296,176.908,367.334,170.001
		z"/>
</g>
<g>
	<path style="fill:#995E31;" d="M195.766,175.111c-4.494,0-22.422,12.854-39.023,24.535c-0.169,1.751-0.286,3.506-0.332,5.263
		l-0.013,0.492c16.697-11.745,34.843-24.777,39.368-24.777c1.035,0,1.758,0.284,2.222,0.799
		C199.199,177.597,198.854,175.111,195.766,175.111z"/>
	<path style="fill:#995E31;" d="M364.86,176.104c-0.764-2.216-1.586-4.419-2.45-6.611c-8.272-3.794-24.94-11.241-35.899,8.59
		c-11.692,21.156-43.387,37.465-46.671,23.864c-3.817,22.588,33.712,5.098,46.671-18.351
		C338.696,161.546,357.949,173.225,364.86,176.104z"/>
	<path style="fill:#995E31;" d="M288.875,175.252c5.008-13.651-24.718-16.184-38.88,5.06c-13.589,20.383-62.37,42.557-71.74,42.218
		c-1.157,2.296-1.774,4-1.542,4.814c1.486,5.2,58.425-19.233,73.282-41.519C261.955,167.885,285.007,166.903,288.875,175.252z"/>
</g>
<g>
	<path style="fill:#4C3F21;" d="M166.837,270.943c-0.065,3.821,2.914,7.023,6.696,7.569l18.334,2.644
		c0.358,0.052,0.717,0.077,1.074,0.077c2.919,0,5.678-1.703,6.919-4.571c0.803-1.857,0.741-3.977,0.012-5.863l-6.768-17.513
		c-0.729-1.887-2.188-3.4-4.046-4.198l-18.469-7.585c-5.101-2.095-10.655,1.804-10.419,7.313l0,0
		c0.127,2.965,1.979,5.581,4.732,6.687l15.318,6.153l1.077,2.786l-5.868-0.846C171.003,262.95,166.916,266.318,166.837,270.943z"/>
	<path style="fill:#4C3F21;" d="M357.106,270.943c0.065,3.821-2.914,7.023-6.696,7.569l-18.334,2.644
		c-0.358,0.052-0.717,0.077-1.074,0.077c-2.919,0-5.678-1.703-6.919-4.571c-0.803-1.857-0.741-3.977-0.012-5.863l6.768-17.513
		c0.729-1.887,2.188-3.4,4.046-4.198l18.469-7.585c5.101-2.095,10.655,1.804,10.419,7.313l0,0c-0.127,2.965-1.979,5.581-4.732,6.687
		l-15.318,6.153l-1.077,2.786l5.868-0.846C352.94,262.95,357.027,266.318,357.106,270.943z"/>
</g>
<path style="fill:#662F02;" d="M222.256,484.499c1.625,13.713,20.261,27.5,41.8,27.5c21.542,0,40.152-13.698,41.802-27.5H222.256z"
	/>
<path style="fill:#713802;" d="M317.835,447.471c-0.689-1.129-1.385-2.138-2.074-2.967c0.34-0.886,0.523-1.631,0.525-2.187
	c0-0.08,0-0.159,0.001-0.239c0.009-23.945-19.566-43.293-43.511-43.293H254.23c-23.945,0-43.52,19.348-43.511,43.293
	c0,0.08,0,0.159,0.001,0.239c0.002,0.556,0.185,1.301,0.526,2.187c-0.689,0.829-1.385,1.838-2.074,2.967
	c-1.238,2.029-2.049,4.427-2.531,7.036c-3.514,18.999,11.628,36.377,30.949,36.377h51.828c19.321,0,34.463-17.378,30.949-36.377
	C319.884,451.898,319.074,449.5,317.835,447.471z"/>
<path style="fill:#5E2A03;" d="M320.367,454.507c-0.483-2.609-1.293-5.007-2.532-7.036c-0.689-1.129-1.385-2.138-2.074-2.967
	c0.34-0.886,0.523-1.631,0.525-2.187c0-0.08,0-0.159,0-0.239c0.009-23.945-19.566-43.293-43.511-43.293h-18.546
	c-2.103,0-4.169,0.157-6.194,0.446c21.035,2.996,37.324,21.005,37.317,42.847c0,0.08,0,0.159,0,0.239
	c-0.002,0.556-0.185,1.301-0.526,2.187c0.689,0.829,1.385,1.838,2.074,2.967c1.239,2.03,2.049,4.427,2.531,7.036
	c1.901,10.28-1.666,25.013-8.395,36.377h8.38C308.738,490.884,323.881,473.506,320.367,454.507z"/>
<g>
	<path style="fill:#4C2103;" d="M243.822,426.278c-2.629-3.215-7.367-3.687-10.578-1.058c-3.214,2.629-3.687,7.365-1.058,10.578
		l10.349,12.65c1.486,1.817,3.645,2.757,5.822,2.757c1.675,0,3.359-0.556,4.756-1.699c3.214-2.629,3.687-7.365,1.058-10.578
		L243.822,426.278z"/>
	<path style="fill:#4C2103;" d="M294.87,425.22c-3.212-2.628-7.949-2.156-10.578,1.058l-10.349,12.65
		c-2.629,3.214-2.155,7.949,1.058,10.578c1.397,1.143,3.081,1.699,4.756,1.699c2.177,0,4.336-0.941,5.822-2.757l10.349-12.65
		C298.557,432.584,298.083,427.849,294.87,425.22z"/>
</g>
</svg>
